<mxfile host="65bd71144e">
    <diagram id="LtNngk2JR1nuo8bp3Qb9" name="Page-1">
        <mxGraphModel dx="1202" dy="551" grid="0" gridSize="10" guides="1" tooltips="1" connect="1" arrows="1" fold="1" page="0" pageScale="1" pageWidth="827" pageHeight="1169" background="#ffffff" math="0" shadow="0">
            <root>
                <mxCell id="0"/>
                <mxCell id="1" parent="0"/>
                <mxCell id="33" style="edgeStyle=elbowEdgeStyle;rounded=0;html=1;exitX=1;exitY=0.384;exitDx=0;exitDy=0;entryX=0.004;entryY=0.417;entryDx=0;entryDy=0;fontSize=14;fontColor=#000000;strokeColor=#000000;fontFamily=Times New Roman;entryPerimeter=0;exitPerimeter=0;" parent="1" source="2" target="31" edge="1">
                    <mxGeometry relative="1" as="geometry">
                        <mxPoint x="207.31999999999982" y="111.5" as="sourcePoint"/>
                        <mxPoint x="411" y="179" as="targetPoint"/>
                        <Array as="points">
                            <mxPoint x="240" y="75"/>
                        </Array>
                    </mxGeometry>
                </mxCell>
                <mxCell id="48" style="edgeStyle=elbowEdgeStyle;rounded=0;html=1;entryX=0.016;entryY=0.358;entryDx=0;entryDy=0;fontSize=14;fontColor=#000000;strokeColor=#000000;fontFamily=Times New Roman;entryPerimeter=0;exitX=0.597;exitY=0.998;exitDx=0;exitDy=0;exitPerimeter=0;" parent="1" target="47" edge="1" source="2">
                    <mxGeometry relative="1" as="geometry">
                        <mxPoint x="148" y="101" as="sourcePoint"/>
                        <mxPoint x="408" y="275" as="targetPoint"/>
                        <Array as="points">
                            <mxPoint x="148" y="180"/>
                        </Array>
                    </mxGeometry>
                </mxCell>
                <mxCell id="69" style="edgeStyle=orthogonalEdgeStyle;rounded=0;html=1;exitX=0.431;exitY=0.994;exitDx=0;exitDy=0;fontSize=14;fontColor=#000000;strokeColor=#000000;exitPerimeter=0;fontFamily=Times New Roman;entryX=0.017;entryY=0.352;entryDx=0;entryDy=0;entryPerimeter=0;" parent="1" target="74" edge="1">
                    <mxGeometry relative="1" as="geometry">
                        <mxPoint x="102.26800000000003" y="99.70000000000005" as="sourcePoint"/>
                        <mxPoint x="415.2199999999999" y="279.84000000000003" as="targetPoint"/>
                        <Array as="points">
                            <mxPoint x="102" y="280"/>
                        </Array>
                    </mxGeometry>
                </mxCell>
                <mxCell id="2" value="&lt;b style=&quot;font-size: 14px;&quot;&gt;&lt;font color=&quot;#000000&quot; style=&quot;font-size: 14px;&quot;&gt;SUPPLIER&lt;/font&gt;&lt;/b&gt;" style="html=1;dashed=0;whitespace=wrap;fillColor=none;strokeColor=#000000;fontFamily=Times New Roman;fontSize=14;" parent="1" vertex="1">
                    <mxGeometry x="12" y="50" width="228" height="50" as="geometry"/>
                </mxCell>
                <mxCell id="34" style="edgeStyle=elbowEdgeStyle;rounded=0;html=1;exitX=0.028;exitY=0.676;exitDx=0;exitDy=0;entryX=1;entryY=0.75;entryDx=0;entryDy=0;fontSize=14;fontColor=#000000;strokeColor=#000000;exitPerimeter=0;fontFamily=Times New Roman;" parent="1" source="31" target="2" edge="1">
                    <mxGeometry relative="1" as="geometry">
                        <mxPoint x="402.79999999999995" y="197.60000000000002" as="sourcePoint"/>
                        <mxPoint x="182" y="113" as="targetPoint"/>
                        <Array as="points">
                            <mxPoint x="272" y="101"/>
                        </Array>
                    </mxGeometry>
                </mxCell>
                <mxCell id="31" value="Manage Supplies&lt;br style=&quot;font-size: 14px&quot;&gt;1.0" style="shape=ellipse;html=1;dashed=0;whitespace=wrap;perimeter=ellipsePerimeter;labelBackgroundColor=#FFFFFF;fontSize=14;fontColor=#000000;strokeColor=#000000;fillColor=#FFFFFF;fontStyle=1;fontFamily=Times New Roman;" parent="1" vertex="1">
                    <mxGeometry x="420" y="40" width="140" height="70" as="geometry"/>
                </mxCell>
                <mxCell id="41" style="edgeStyle=none;rounded=0;html=1;fontSize=14;fontColor=#000000;strokeColor=#000000;entryX=0.988;entryY=0.618;entryDx=0;entryDy=0;entryPerimeter=0;fontFamily=Times New Roman;" parent="1" target="31" edge="1">
                    <mxGeometry relative="1" as="geometry">
                        <mxPoint x="538.52" y="83.10999999999996" as="targetPoint"/>
                        <mxPoint x="690" y="83" as="sourcePoint"/>
                        <Array as="points"/>
                    </mxGeometry>
                </mxCell>
                <mxCell id="42" value="&lt;b style=&quot;font-size: 14px;&quot;&gt;Add / Edit / Delete Supplies&lt;/b&gt;" style="text;html=1;align=center;verticalAlign=middle;resizable=0;points=[];autosize=1;strokeColor=none;fillColor=none;fontSize=14;fontColor=#000000;fontFamily=Times New Roman;" parent="1" vertex="1">
                    <mxGeometry x="237" y="50" width="175" height="21" as="geometry"/>
                </mxCell>
                <mxCell id="43" value="&lt;b style=&quot;font-size: 14px;&quot;&gt;Acknowledgement&lt;/b&gt;" style="text;html=1;align=center;verticalAlign=middle;resizable=0;points=[];autosize=1;strokeColor=none;fillColor=none;fontSize=14;fontColor=#000000;fontFamily=Times New Roman;" parent="1" vertex="1">
                    <mxGeometry x="264.5" y="69" width="120" height="21" as="geometry"/>
                </mxCell>
                <mxCell id="44" value="&lt;b style=&quot;font-size: 14px;&quot;&gt;Manage Supplies&lt;/b&gt;" style="text;html=1;align=center;verticalAlign=middle;resizable=0;points=[];autosize=1;strokeColor=none;fillColor=none;fontSize=14;fontColor=#000000;fontFamily=Times New Roman;" parent="1" vertex="1">
                    <mxGeometry x="564" y="46" width="112" height="21" as="geometry"/>
                </mxCell>
                <mxCell id="45" value="&lt;b style=&quot;font-size: 14px;&quot;&gt;Acknowledgement&lt;/b&gt;" style="text;html=1;align=center;verticalAlign=middle;resizable=0;points=[];autosize=1;strokeColor=none;fillColor=none;fontSize=14;fontColor=#000000;fontFamily=Times New Roman;" parent="1" vertex="1">
                    <mxGeometry x="564" y="64.5" width="120" height="21" as="geometry"/>
                </mxCell>
                <mxCell id="46" value="&lt;b style=&quot;font-size: 14px;&quot;&gt;product&lt;/b&gt;" style="html=1;dashed=0;whitespace=wrap;shape=partialRectangle;right=0;left=0;fontSize=14;fontColor=#000000;strokeColor=#000000;fillColor=none;fontFamily=Times New Roman;" parent="1" vertex="1">
                    <mxGeometry x="691" y="60" width="100" height="30" as="geometry"/>
                </mxCell>
                <mxCell id="49" style="edgeStyle=elbowEdgeStyle;rounded=0;html=1;exitX=0.01;exitY=0.613;exitDx=0;exitDy=0;fontSize=14;fontColor=#000000;strokeColor=#000000;fontFamily=Times New Roman;exitPerimeter=0;entryX=0.522;entryY=0.995;entryDx=0;entryDy=0;entryPerimeter=0;" parent="1" source="47" target="2" edge="1">
                    <mxGeometry relative="1" as="geometry">
                        <mxPoint x="401" y="293" as="sourcePoint"/>
                        <mxPoint x="131" y="101" as="targetPoint"/>
                        <Array as="points">
                            <mxPoint x="131" y="198"/>
                        </Array>
                    </mxGeometry>
                </mxCell>
                <mxCell id="47" value="Manage Payments&lt;br style=&quot;font-size: 14px&quot;&gt;2.0" style="shape=ellipse;html=1;dashed=0;whitespace=wrap;perimeter=ellipsePerimeter;labelBackgroundColor=#FFFFFF;fontSize=14;fontColor=#000000;strokeColor=#000000;fillColor=#FFFFFF;fontStyle=1;fontFamily=Times New Roman;" parent="1" vertex="1">
                    <mxGeometry x="425" y="147" width="130" height="70" as="geometry"/>
                </mxCell>
                <mxCell id="51" value="&lt;b style=&quot;font-size: 14px;&quot;&gt;View Payment / Transaction&lt;/b&gt;" style="text;html=1;align=center;verticalAlign=middle;resizable=0;points=[];autosize=1;strokeColor=none;fillColor=none;fontSize=14;fontColor=#000000;fontFamily=Times New Roman;" parent="1" vertex="1">
                    <mxGeometry x="235.5" y="152" width="178" height="21" as="geometry"/>
                </mxCell>
                <mxCell id="52" value="&lt;b style=&quot;font-size: 14px;&quot;&gt;Acknowledgement&lt;/b&gt;" style="text;html=1;align=center;verticalAlign=middle;resizable=0;points=[];autosize=1;strokeColor=none;fillColor=none;fontSize=14;fontColor=#000000;fontFamily=Times New Roman;" parent="1" vertex="1">
                    <mxGeometry x="264.5" y="169" width="120" height="21" as="geometry"/>
                </mxCell>
                <mxCell id="53" style="edgeStyle=elbowEdgeStyle;rounded=0;html=1;fontSize=14;fontColor=#000000;strokeColor=#000000;fontFamily=Times New Roman;entryX=-0.005;entryY=0.245;entryDx=0;entryDy=0;entryPerimeter=0;" parent="1" target="57" edge="1">
                    <mxGeometry relative="1" as="geometry">
                        <mxPoint x="700" y="172.34782608695662" as="targetPoint"/>
                        <mxPoint x="555" y="172" as="sourcePoint"/>
                    </mxGeometry>
                </mxCell>
                <mxCell id="54" style="edgeStyle=none;rounded=0;html=1;fontSize=14;fontColor=#000000;strokeColor=#000000;fontFamily=Times New Roman;exitX=-0.002;exitY=0.83;exitDx=0;exitDy=0;exitPerimeter=0;" parent="1" source="57" edge="1">
                    <mxGeometry relative="1" as="geometry">
                        <mxPoint x="553" y="190" as="targetPoint"/>
                        <mxPoint x="700" y="190" as="sourcePoint"/>
                    </mxGeometry>
                </mxCell>
                <mxCell id="55" value="&lt;b style=&quot;font-size: 14px;&quot;&gt;View Payments&lt;/b&gt;" style="text;html=1;align=center;verticalAlign=middle;resizable=0;points=[];autosize=1;strokeColor=none;fillColor=none;fontSize=14;fontColor=#000000;fontFamily=Times New Roman;" parent="1" vertex="1">
                    <mxGeometry x="567" y="152" width="102" height="21" as="geometry"/>
                </mxCell>
                <mxCell id="56" value="&lt;b style=&quot;font-size: 14px;&quot;&gt;Acknowledgement&lt;/b&gt;" style="text;html=1;align=center;verticalAlign=middle;resizable=0;points=[];autosize=1;strokeColor=none;fillColor=none;fontSize=14;fontColor=#000000;fontFamily=Times New Roman;" parent="1" vertex="1">
                    <mxGeometry x="558" y="169" width="120" height="21" as="geometry"/>
                </mxCell>
                <mxCell id="57" value="&lt;b style=&quot;font-size: 14px;&quot;&gt;payment&lt;/b&gt;" style="html=1;dashed=0;whitespace=wrap;shape=partialRectangle;right=0;left=0;fontSize=14;fontColor=#000000;strokeColor=#000000;fillColor=none;fontFamily=Times New Roman;" parent="1" vertex="1">
                    <mxGeometry x="691" y="164.5" width="100" height="30" as="geometry"/>
                </mxCell>
                <mxCell id="68" style="edgeStyle=orthogonalEdgeStyle;rounded=0;html=1;fontSize=14;fontColor=#000000;strokeColor=#000000;fontFamily=Times New Roman;exitX=0;exitY=0.549;exitDx=0;exitDy=0;exitPerimeter=0;" parent="1" source="74" edge="1">
                    <mxGeometry relative="1" as="geometry">
                        <mxPoint x="83" y="100" as="targetPoint"/>
                        <mxPoint x="408.14" y="295.84000000000003" as="sourcePoint"/>
                        <Array as="points">
                            <mxPoint x="382" y="296"/>
                            <mxPoint x="83" y="296"/>
                        </Array>
                    </mxGeometry>
                </mxCell>
                <mxCell id="60" value="Manage Account&lt;br style=&quot;font-size: 14px&quot;&gt;3.0" style="shape=ellipse;html=1;dashed=0;whitespace=wrap;perimeter=ellipsePerimeter;labelBackgroundColor=#FFFFFF;fontSize=14;fontColor=#000000;strokeColor=#000000;fillColor=#FFFFFF;fontStyle=1;fontFamily=Times New Roman;" parent="1" vertex="1">
                    <mxGeometry x="420" y="252" width="140" height="80" as="geometry"/>
                </mxCell>
                <mxCell id="61" value="&lt;b style=&quot;font-size: 14px&quot;&gt;Manage Supplies&lt;/b&gt;" style="text;html=1;align=center;verticalAlign=middle;resizable=0;points=[];autosize=1;strokeColor=none;fillColor=none;fontSize=14;fontColor=#000000;fontFamily=Times New Roman;" parent="1" vertex="1">
                    <mxGeometry x="268.5" y="261" width="112" height="21" as="geometry"/>
                </mxCell>
                <mxCell id="62" value="&lt;b style=&quot;font-size: 14px;&quot;&gt;Acknowledgement&lt;/b&gt;" style="text;html=1;align=center;verticalAlign=middle;resizable=0;points=[];autosize=1;strokeColor=none;fillColor=none;fontSize=14;fontColor=#000000;fontFamily=Times New Roman;" parent="1" vertex="1">
                    <mxGeometry x="264.5" y="277" width="120" height="21" as="geometry"/>
                </mxCell>
                <mxCell id="63" style="edgeStyle=none;rounded=0;html=1;fontSize=14;fontColor=#000000;strokeColor=#000000;entryX=-0.003;entryY=0.211;entryDx=0;entryDy=0;fontFamily=Times New Roman;exitX=0.943;exitY=0.266;exitDx=0;exitDy=0;exitPerimeter=0;entryPerimeter=0;" parent="1" source="60" target="67" edge="1">
                    <mxGeometry relative="1" as="geometry">
                        <mxPoint x="693.25" y="379" as="targetPoint"/>
                        <mxPoint x="577" y="264" as="sourcePoint"/>
                    </mxGeometry>
                </mxCell>
                <mxCell id="64" style="edgeStyle=none;rounded=0;html=1;exitX=0.002;exitY=0.833;exitDx=0;exitDy=0;fontSize=14;fontColor=#000000;strokeColor=#000000;exitPerimeter=0;fontFamily=Times New Roman;entryX=1;entryY=0.5;entryDx=0;entryDy=0;" parent="1" source="67" target="60" edge="1">
                    <mxGeometry relative="1" as="geometry">
                        <mxPoint x="548" y="396" as="targetPoint"/>
                        <mxPoint x="692.3" y="396" as="sourcePoint"/>
                    </mxGeometry>
                </mxCell>
                <mxCell id="65" value="&lt;b style=&quot;font-size: 14px;&quot;&gt;View Supplies&lt;/b&gt;" style="text;html=1;align=center;verticalAlign=middle;resizable=0;points=[];autosize=1;strokeColor=none;fillColor=none;fontSize=14;fontColor=#000000;fontFamily=Times New Roman;" parent="1" vertex="1">
                    <mxGeometry x="573" y="252" width="94" height="21" as="geometry"/>
                </mxCell>
                <mxCell id="66" value="&lt;b style=&quot;font-size: 14px;&quot;&gt;Acknowledgement&lt;/b&gt;" style="text;html=1;align=center;verticalAlign=middle;resizable=0;points=[];autosize=1;strokeColor=none;fillColor=none;fontSize=14;fontColor=#000000;fontFamily=Times New Roman;" parent="1" vertex="1">
                    <mxGeometry x="567" y="270.5" width="120" height="21" as="geometry"/>
                </mxCell>
                <mxCell id="67" value="&lt;b style=&quot;font-size: 14px;&quot;&gt;supplier&lt;/b&gt;" style="html=1;dashed=0;whitespace=wrap;shape=partialRectangle;right=0;left=0;fontSize=14;fontColor=#000000;strokeColor=#000000;fillColor=none;fontFamily=Times New Roman;" parent="1" vertex="1">
                    <mxGeometry x="691" y="266" width="100" height="30" as="geometry"/>
                </mxCell>
                <mxCell id="71" style="edgeStyle=elbowEdgeStyle;rounded=0;html=1;entryX=0.004;entryY=0.417;entryDx=0;entryDy=0;fontSize=14;fontColor=#000000;strokeColor=#000000;fontFamily=Times New Roman;entryPerimeter=0;exitX=0.987;exitY=0.385;exitDx=0;exitDy=0;exitPerimeter=0;" parent="1" source="31" edge="1">
                    <mxGeometry relative="1" as="geometry">
                        <mxPoint x="542" y="67" as="sourcePoint"/>
                        <mxPoint x="694.56" y="67.00000000000006" as="targetPoint"/>
                        <Array as="points"/>
                    </mxGeometry>
                </mxCell>
                <mxCell id="74" value="Manage Account&lt;br style=&quot;font-size: 14px&quot;&gt;3.0" style="shape=ellipse;html=1;dashed=0;whitespace=wrap;perimeter=ellipsePerimeter;labelBackgroundColor=#FFFFFF;fontSize=14;fontColor=#000000;strokeColor=#000000;fillColor=#FFFFFF;fontStyle=1;fontFamily=Times New Roman;" vertex="1" parent="1">
                    <mxGeometry x="419.8" y="252" width="140" height="80" as="geometry"/>
                </mxCell>
                <mxCell id="75" style="edgeStyle=none;rounded=0;html=1;exitX=0.002;exitY=0.833;exitDx=0;exitDy=0;fontSize=14;fontColor=#000000;strokeColor=#000000;exitPerimeter=0;fontFamily=Times New Roman;entryX=1;entryY=0.5;entryDx=0;entryDy=0;" edge="1" target="74" parent="1">
                    <mxGeometry relative="1" as="geometry">
                        <mxPoint x="547.8" y="396" as="targetPoint"/>
                        <mxPoint x="691.0000000000001" y="290.99" as="sourcePoint"/>
                    </mxGeometry>
                </mxCell>
                <mxCell id="76" style="edgeStyle=none;rounded=0;html=1;fontSize=14;fontColor=#000000;strokeColor=#000000;entryX=-0.003;entryY=0.211;entryDx=0;entryDy=0;fontFamily=Times New Roman;exitX=0.943;exitY=0.266;exitDx=0;exitDy=0;exitPerimeter=0;entryPerimeter=0;" edge="1" parent="1" target="77">
                    <mxGeometry relative="1" as="geometry">
                        <mxPoint x="693.25" y="492.3" as="targetPoint"/>
                        <mxPoint x="552.02" y="386.58" as="sourcePoint"/>
                    </mxGeometry>
                </mxCell>
                <mxCell id="77" value="&lt;b style=&quot;font-size: 14px&quot;&gt;delivery_boy&lt;/b&gt;" style="html=1;dashed=0;whitespace=wrap;shape=partialRectangle;right=0;left=0;fontSize=14;fontColor=#000000;strokeColor=#000000;fillColor=none;fontFamily=Times New Roman;" vertex="1" parent="1">
                    <mxGeometry x="691" y="379.3" width="100" height="30" as="geometry"/>
                </mxCell>
                <mxCell id="78" style="edgeStyle=orthogonalEdgeStyle;rounded=0;html=1;exitX=0.171;exitY=1.005;exitDx=0;exitDy=0;fontSize=14;fontColor=#000000;strokeColor=#000000;exitPerimeter=0;fontFamily=Times New Roman;entryX=0.023;entryY=0.348;entryDx=0;entryDy=0;entryPerimeter=0;" edge="1" parent="1" target="80" source="2">
                    <mxGeometry relative="1" as="geometry">
                        <mxPoint x="110.06799999999998" y="213.00000000000006" as="sourcePoint"/>
                        <mxPoint x="392.8" y="496.3" as="targetPoint"/>
                        <Array as="points">
                            <mxPoint x="51" y="393"/>
                        </Array>
                    </mxGeometry>
                </mxCell>
                <mxCell id="79" style="edgeStyle=orthogonalEdgeStyle;rounded=0;html=1;fontSize=14;fontColor=#000000;strokeColor=#000000;fontFamily=Times New Roman;exitX=0.001;exitY=0.548;exitDx=0;exitDy=0;exitPerimeter=0;entryX=0.094;entryY=1.005;entryDx=0;entryDy=0;entryPerimeter=0;" edge="1" parent="1" source="80" target="2">
                    <mxGeometry relative="1" as="geometry">
                        <mxPoint x="94.79999999999995" y="213.3" as="targetPoint"/>
                        <mxPoint x="418.8" y="409.3" as="sourcePoint"/>
                        <Array as="points">
                            <mxPoint x="34" y="409"/>
                            <mxPoint x="34" y="213"/>
                            <mxPoint x="33" y="213"/>
                        </Array>
                    </mxGeometry>
                </mxCell>
                <mxCell id="80" value="Manage Delivery&amp;nbsp;&lt;br style=&quot;font-size: 14px&quot;&gt;3.0" style="shape=ellipse;html=1;dashed=0;whitespace=wrap;perimeter=ellipsePerimeter;labelBackgroundColor=#FFFFFF;fontSize=14;fontColor=#000000;strokeColor=#000000;fillColor=#FFFFFF;fontStyle=1;fontFamily=Times New Roman;" vertex="1" parent="1">
                    <mxGeometry x="419.8" y="365.3" width="140" height="80" as="geometry"/>
                </mxCell>
                <mxCell id="81" style="edgeStyle=none;rounded=0;html=1;exitX=0.002;exitY=0.833;exitDx=0;exitDy=0;fontSize=14;fontColor=#000000;strokeColor=#000000;exitPerimeter=0;fontFamily=Times New Roman;entryX=1;entryY=0.5;entryDx=0;entryDy=0;" edge="1" parent="1" target="80">
                    <mxGeometry relative="1" as="geometry">
                        <mxPoint x="547.8" y="509.3" as="targetPoint"/>
                        <mxPoint x="691" y="404.29" as="sourcePoint"/>
                    </mxGeometry>
                </mxCell>
                <mxCell id="82" value="&lt;b style=&quot;font-size: 14px&quot;&gt;Manage Delivery Boy&lt;/b&gt;" style="text;html=1;align=center;verticalAlign=middle;resizable=0;points=[];autosize=1;strokeColor=none;fillColor=none;fontSize=14;fontColor=#000000;fontFamily=Times New Roman;" vertex="1" parent="1">
                    <mxGeometry x="255.5" y="371" width="139" height="21" as="geometry"/>
                </mxCell>
                <mxCell id="83" value="&lt;b style=&quot;font-size: 14px;&quot;&gt;Acknowledgement&lt;/b&gt;" style="text;html=1;align=center;verticalAlign=middle;resizable=0;points=[];autosize=1;strokeColor=none;fillColor=none;fontSize=14;fontColor=#000000;fontFamily=Times New Roman;" vertex="1" parent="1">
                    <mxGeometry x="260.5" y="388.3" width="120" height="21" as="geometry"/>
                </mxCell>
                <mxCell id="84" value="&lt;b style=&quot;font-size: 14px;&quot;&gt;Acknowledgement&lt;/b&gt;" style="text;html=1;align=center;verticalAlign=middle;resizable=0;points=[];autosize=1;strokeColor=none;fillColor=none;fontSize=14;fontColor=#000000;fontFamily=Times New Roman;" vertex="1" parent="1">
                    <mxGeometry x="566" y="385.8" width="120" height="21" as="geometry"/>
                </mxCell>
                <mxCell id="85" value="&lt;b style=&quot;font-size: 14px&quot;&gt;Manage Delivery&lt;/b&gt;" style="text;html=1;align=center;verticalAlign=middle;resizable=0;points=[];autosize=1;strokeColor=none;fillColor=none;fontSize=14;fontColor=#000000;fontFamily=Times New Roman;" vertex="1" parent="1">
                    <mxGeometry x="562.5" y="366.3" width="112" height="21" as="geometry"/>
                </mxCell>
            </root>
        </mxGraphModel>
    </diagram>
</mxfile>